<?xml version="1.0" encoding="UTF-8"?>
<svg width="291px" height="164px" viewBox="0 0 291 164" version="1.1" xmlns="http://www.w3.org/2000/svg" xmlns:xlink="http://www.w3.org/1999/xlink">
    <!-- Generator: Sketch 48.2 (47327) - http://www.bohemiancoding.com/sketch -->
    <title>Page 1</title>
    <desc>Created with Sketch.</desc>
    <defs></defs>
    <g id="Tablet" stroke="none" stroke-width="1" fill="none" fill-rule="evenodd" transform="translate(-623.000000, -67.000000)" fill-opacity="0.99">
        <g id="Page-1" transform="translate(623.000000, 67.000000)" fill="#5C5C5C">
            <path d="M80.4199,38.6228 C78.6939,38.4278 77.0829,38.2898 75.5859,38.2078 C74.0879,38.1268 72.7049,38.0858 71.4359,38.0858 L70.0199,38.0858 C69.4659,38.0858 68.8639,38.1018 68.2129,38.1348 C68.8309,35.6278 69.6209,33.0318 70.5809,30.3468 C71.5409,27.6608 72.6239,25.0078 73.8279,22.3878 C75.0319,19.7678 76.3509,17.2358 77.7829,14.7948 C79.2149,12.3528 80.7449,10.1238 82.3729,8.1048 C88.0369,9.2448 92.3829,11.0028 95.4099,13.3788 C98.4379,15.7548 99.9509,18.7668 99.9509,22.4118 C99.9509,24.2028 99.6659,25.7978 99.0969,27.1968 C98.5269,28.5968 97.7619,29.8578 96.8019,30.9808 C95.8409,32.1038 94.7099,33.0808 93.4079,33.9108 C92.1059,34.7408 90.7309,35.4568 89.2819,36.0598 C87.8339,36.6618 86.3529,37.1748 84.8389,37.5978 C83.3249,38.0208 81.8519,38.3628 80.4199,38.6228 M66.8949,30.4198 C65.9829,33.0888 65.0879,35.7588 64.2089,38.4278 C62.6139,38.6558 61.4419,38.9398 60.6929,39.2818 C59.9439,39.6238 59.5699,40.1848 59.5699,40.9668 C59.5699,41.7158 59.8789,42.2608 60.4979,42.6018 C61.1159,42.9438 61.7189,43.1148 62.3049,43.1148 C60.0909,48.1608 57.5029,52.5148 54.5409,56.1768 C51.5789,59.8388 48.4539,62.8658 45.1659,65.2588 C41.8779,67.6508 38.5089,69.4258 35.0589,70.5808 C31.6079,71.7368 28.2879,72.3138 25.0979,72.3138 C21.9069,72.3138 18.9939,71.8988 16.3569,71.0688 C13.7209,70.2388 11.4579,69.0508 9.5699,67.5048 C7.6819,65.9588 6.2259,64.0618 5.1999,61.8158 C4.1749,59.5698 3.6619,57.0308 3.6619,54.1988 C3.6619,51.1718 4.2799,47.9818 5.5179,44.6288 C6.7539,41.2758 8.5939,37.8738 11.0349,34.4238 C13.4439,31.0388 16.1129,27.9948 19.0429,25.2928 C21.9729,22.5908 25.0569,20.2228 28.2959,18.1878 C31.5349,16.1538 34.8709,14.4128 38.3059,12.9638 C41.7399,11.5158 45.1489,10.3348 48.5349,9.4238 C51.9199,8.5128 55.2249,7.8448 58.4469,7.4218 C61.6699,6.9988 64.7129,6.7868 67.5779,6.7868 C69.4989,6.7868 71.3379,6.8358 73.0959,6.9338 C74.8539,7.0308 76.5629,7.1938 78.2229,7.4218 C76.4649,9.8308 74.9189,12.2968 73.5839,14.8188 C72.2489,17.3418 71.0279,19.9058 69.9219,22.5098 C68.8149,25.1138 67.8059,27.7508 66.8949,30.4198 M105.9079,52.6858 C105.4849,51.6438 104.8829,50.5538 104.1019,49.4138 C103.3199,48.2748 102.2539,47.1598 100.9029,46.0688 C99.5519,44.9788 97.8919,43.9288 95.9229,42.9198 C93.9529,41.9108 91.5689,41.0158 88.7699,40.2338 C90.7879,39.5188 92.6999,38.6308 94.5069,37.5728 C96.3139,36.5158 97.8919,35.2698 99.2429,33.8378 C100.5939,32.4058 101.6599,30.7458 102.4409,28.8568 C103.2229,26.9698 103.6129,24.8368 103.6129,22.4608 C103.6129,18.1318 102.0339,14.4938 98.8769,11.5478 C95.7189,8.6018 91.1619,6.3958 85.2049,4.9318 C85.9859,4.1828 86.6049,3.5888 87.0609,3.1488 C87.5159,2.7098 87.7439,2.1648 87.7439,1.5138 C87.7439,1.0248 87.5649,0.6508 87.2069,0.3908 C86.8489,0.1298 86.4419,-0.000200000002 85.9859,-0.000200000002 C85.6929,-0.000200000002 85.3519,0.0978 84.9609,0.2928 C84.8629,0.3578 84.4559,0.6758 83.7399,1.2448 C83.0239,1.8148 82.0799,2.7508 80.9079,4.0528 C78.8899,3.7268 76.7739,3.4828 74.5609,3.3198 C72.3469,3.1578 70.0199,3.0758 67.5779,3.0758 C64.5829,3.0758 61.3849,3.2958 57.9829,3.7348 C54.5819,4.1748 51.0989,4.8828 47.5339,5.8588 C43.9699,6.8358 40.3809,8.0888 36.7679,9.6188 C33.1539,11.1488 29.6469,12.9878 26.2449,15.1368 C22.8429,17.2848 19.5959,19.7838 16.5039,22.6318 C13.4109,25.4798 10.5959,28.6948 8.0569,32.2748 C5.3869,36.0838 3.3769,39.8358 2.0259,43.5298 C0.6749,47.2248 -0.0001,50.7978 -0.0001,54.2478 C-0.0001,57.5678 0.6179,60.5708 1.8559,63.2568 C3.0919,65.9418 4.8169,68.2288 7.0309,70.1168 C9.2449,72.0048 11.8899,73.4618 14.9659,74.4868 C18.0419,75.5128 21.4189,76.0248 25.0979,76.0248 C28.6459,76.0248 32.3489,75.3818 36.2059,74.0968 C40.0639,72.8108 43.8229,70.8248 47.4849,68.1398 C51.1479,65.4538 54.5979,62.0598 57.8369,57.9588 C61.0759,53.8568 63.8669,48.9908 66.2109,43.3588 C66.4059,43.3918 66.6179,43.4078 66.8459,43.4078 L67.9689,43.4078 C69.7589,43.4078 71.7119,43.3268 73.8279,43.1638 C75.9439,43.0008 78.1249,42.7248 80.3709,42.3338 C83.7889,42.7898 86.8979,43.4898 89.6969,44.4338 C92.4969,45.3778 94.8979,46.5168 96.8989,47.8518 C98.9009,49.1858 100.4469,50.6998 101.5379,52.3928 C102.6279,54.0848 103.1739,55.9248 103.1739,57.9098 C103.1739,59.7008 102.6859,61.4668 101.7089,63.2078 C100.7319,64.9498 99.2269,66.5118 97.1919,67.8948 C95.1579,69.2788 92.5619,70.3938 89.4039,71.2398 C86.2469,72.0868 82.4709,72.5098 78.0759,72.5098 C74.8539,72.5098 71.6469,72.1848 68.4569,71.5328 C65.2669,70.8818 62.1579,69.9218 59.1309,68.6518 C58.8699,68.5548 58.6259,68.5058 58.3989,68.5058 C57.9419,68.5058 57.5199,68.6768 57.1289,69.0188 C56.7379,69.3598 56.5429,69.8078 56.5429,70.3608 C56.5429,71.1748 56.9339,71.7448 57.7149,72.0698 C61.2309,73.5348 64.7049,74.5928 68.1399,75.2438 C71.5739,75.8948 74.9019,76.2208 78.1249,76.2208 C80.1099,76.2208 82.2099,76.0818 84.4239,75.8058 C86.6369,75.5288 88.8019,75.0888 90.9179,74.4868 C93.0339,73.8848 95.0599,73.1118 96.9969,72.1678 C98.9339,71.2238 100.6349,70.0678 102.0999,68.7008 C103.5649,67.3338 104.7279,65.7548 105.5909,63.9648 C106.4529,62.1748 106.8849,60.1398 106.8849,57.8608 C106.8849,57.2428 106.8279,56.4858 106.7139,55.5908 C106.5999,54.6958 106.3309,53.7268 105.9079,52.6858" id="Fill-1"></path>
            <path d="M256.2505,50.4881 C256.3145,50.2281 256.4125,49.9021 256.5435,49.5111 C256.6725,49.1211 256.8185,48.7551 256.9825,48.4131 C257.1455,48.0711 257.2995,47.7781 257.4455,47.5341 C257.5925,47.2901 257.7155,47.1681 257.8125,47.1681 C257.9105,47.1681 257.9995,47.2981 258.0805,47.5581 C258.1625,47.8191 258.2275,48.1281 258.2755,48.4861 C258.3245,48.8441 258.3575,49.2111 258.3735,49.5851 C258.3905,49.9591 258.3985,50.2601 258.3985,50.4881 L256.2505,50.4881 Z M234.9845,63.7691 C234.8715,63.1181 234.8145,62.5001 234.8145,61.9141 C234.8145,60.9701 234.9035,60.0181 235.0825,59.0571 C235.2625,58.0971 235.5475,57.2261 235.9385,56.4451 C236.3285,55.6641 236.8325,55.0291 237.4515,54.5411 C238.0685,54.0521 238.8185,53.8081 239.6975,53.8081 C240.3485,53.8081 240.9185,54.0611 241.4065,54.5651 C241.8955,55.0701 242.1395,55.8101 242.1395,56.7871 C242.1395,57.6661 241.9755,58.5371 241.6505,59.3991 C241.3245,60.2621 240.8695,61.0841 240.2835,61.8651 C239.6975,62.6461 238.9885,63.3631 238.1585,64.0131 C237.3285,64.6651 236.4085,65.2021 235.4005,65.6251 C235.2365,65.0391 235.0995,64.4211 234.9845,63.7691 Z M214.6485,98.1441 C214.6485,99.7071 214.6155,101.4161 214.5505,103.2711 C214.4855,105.1271 214.3715,106.9901 214.2085,108.8621 C214.0455,110.7341 213.8015,112.5491 213.4765,114.3061 C213.1505,116.0641 212.7275,117.6181 212.2075,118.9691 C211.6865,120.3201 211.0515,121.4031 210.3025,122.2171 C209.5535,123.0301 208.6745,123.4371 207.6665,123.4371 C207.3405,123.4371 206.9905,123.3721 206.6165,123.2421 C206.2415,123.1121 205.8995,122.8511 205.5905,122.4611 C205.2815,122.0701 205.0215,121.5161 204.8095,120.8011 C204.5975,120.0841 204.4925,119.1241 204.4925,117.9201 C204.4925,116.0311 204.7285,113.8911 205.2005,111.4991 C205.6715,109.1061 206.3475,106.6401 207.2265,104.1011 C208.1055,101.5621 209.1635,99.0481 210.4005,96.5571 C211.6375,94.0671 213.0205,91.7641 214.5505,89.6481 C214.6155,91.1131 214.6485,92.5451 214.6485,93.9451 L214.6485,98.1441 Z M184.2285,98.1441 C184.2285,99.7071 184.1955,101.4161 184.1305,103.2711 C184.0655,105.1271 183.9515,106.9901 183.7895,108.8621 C183.6255,110.7341 183.3815,112.5491 183.0565,114.3061 C182.7305,116.0641 182.3075,117.6181 181.7875,118.9691 C181.2665,120.3201 180.6315,121.4031 179.8825,122.2171 C179.1335,123.0301 178.2545,123.4371 177.2465,123.4371 C176.9205,123.4371 176.5705,123.3721 176.1965,123.2421 C175.8215,123.1121 175.4795,122.8511 175.1705,122.4611 C174.8615,122.0701 174.6015,121.5161 174.3895,120.8011 C174.1775,120.0841 174.0725,119.1241 174.0725,117.9201 C174.0725,116.0311 174.3085,113.8911 174.7805,111.4991 C175.2515,109.1061 175.9275,106.6401 176.8065,104.1011 C177.6855,101.5621 178.7435,99.0481 179.9805,96.5571 C181.2175,94.0671 182.6005,91.7641 184.1305,89.6481 C184.1955,91.1131 184.2285,92.5451 184.2285,93.9451 L184.2285,98.1441 Z M156.7875,63.9161 C156.1035,63.4931 155.5095,62.9801 155.0045,62.3781 C154.5005,61.7761 154.0775,61.1411 153.7355,60.4731 C153.3935,59.8061 153.1415,59.1311 152.9785,58.4471 C152.8155,57.7631 152.7345,57.1131 152.7345,56.4941 C152.7345,55.5171 152.8965,54.8831 153.2225,54.5901 C153.5475,54.2971 153.8085,54.1501 154.0035,54.1501 C154.4925,54.1501 154.9155,54.3861 155.2735,54.8581 C155.6315,55.3301 155.9325,55.9491 156.1765,56.7141 C156.4205,57.4791 156.6075,58.3171 156.7385,59.2281 C156.8685,60.1401 156.9335,61.0351 156.9335,61.9141 C156.9335,62.5651 156.8845,63.2321 156.7875,63.9161 Z M117.9685,52.5391 C117.8055,50.7811 117.6755,48.9421 117.5785,47.0211 C117.4805,45.1011 117.4315,43.0991 117.4315,41.0151 C117.4315,38.2811 117.5215,35.5301 117.7005,32.7631 C117.8785,29.9971 118.1235,27.3431 118.4325,24.8041 C118.7415,22.2651 119.1245,19.8891 119.5805,17.6751 C120.0355,15.4621 120.5405,13.5421 121.0935,11.9141 C121.6465,10.2861 122.2415,9.0011 122.8755,8.0561 C123.5105,7.1131 124.1695,6.6401 124.8535,6.6401 C125.8955,6.6401 126.7255,7.4701 127.3435,9.1311 C127.9615,10.7911 128.2715,13.5421 128.2715,17.3831 C128.2715,20.1171 127.9865,22.9901 127.4175,26.0011 C126.8475,29.0121 126.0905,32.0391 125.1465,35.0831 C124.2025,38.1271 123.1115,41.1371 121.8755,44.1161 C120.6375,47.0941 119.3355,49.9021 117.9685,52.5391 Z M289.8935,58.5691 C289.5665,58.1951 289.1115,58.0081 288.5255,58.0081 C288.1995,58.0081 287.8915,58.0891 287.5985,58.2521 C287.3055,58.4151 287.0765,58.6421 286.9145,58.9351 C286.3595,60.0091 285.6685,61.2631 284.8385,62.6951 C284.0085,64.1281 283.0725,65.4871 282.0315,66.7721 C280.9885,68.0581 279.8505,69.1571 278.6135,70.0681 C277.3755,70.9801 276.0575,71.4351 274.6585,71.4351 C274.2015,71.4351 273.6975,71.3461 273.1455,71.1671 C272.5905,70.9881 272.0705,70.6711 271.5825,70.2151 C271.0945,69.7591 270.6865,69.1491 270.3615,68.3841 C270.0355,67.6191 269.8735,66.6501 269.8735,65.4781 C269.8735,64.6651 269.9225,63.8351 270.0205,62.9881 C270.1175,62.1421 270.2305,61.2871 270.3615,60.4251 C270.4905,59.5621 270.6055,58.7241 270.7035,57.9101 C270.8015,57.0961 270.8505,56.3151 270.8505,55.5661 C270.8505,53.7111 270.3615,52.3761 269.3855,51.5621 C268.4085,50.7491 266.9925,50.3421 265.1375,50.3421 C264.6485,50.3421 264.1355,50.3501 263.5985,50.3661 C263.0615,50.3831 262.5165,50.3901 261.9635,50.3901 C261.9635,49.7391 261.9055,48.9741 261.7915,48.0951 C261.6785,47.2171 261.4905,46.3791 261.2305,45.5811 C260.9695,44.7831 260.6045,44.1081 260.1315,43.5541 C259.6595,43.0011 259.0495,42.7241 258.3015,42.7241 C257.6485,42.7241 256.9985,43.0581 256.3485,43.7251 C255.6955,44.3931 255.1095,45.1821 254.5905,46.0931 C254.0685,47.0051 253.6545,47.9331 253.3445,48.8771 C253.0355,49.8211 252.8815,50.5701 252.8815,51.1231 C252.8815,51.8721 253.0435,52.4581 253.3695,52.8811 C253.6945,53.3041 254.1095,53.6131 254.6135,53.8081 C255.1185,54.0041 255.6645,54.1181 256.2505,54.1501 C256.8365,54.1831 257.4045,54.1991 257.9595,54.1991 C257.6665,55.6321 257.4225,56.6891 257.2275,57.3731 C257.0855,57.8681 256.9615,58.2581 256.8545,58.5481 C256.7325,58.6861 256.6285,58.8461 256.5435,59.0331 C255.8595,60.5631 255.0945,62.0931 254.2485,63.6231 C253.4005,65.1531 252.4415,66.5361 251.3675,67.7731 C250.2935,69.0101 249.1045,70.0111 247.8035,70.7761 C246.5005,71.5411 245.0515,71.9241 243.4575,71.9241 C241.8955,71.9241 240.5765,71.6391 239.5025,71.0691 C238.4285,70.5001 237.5495,69.7431 236.8655,68.7991 C238.1355,68.1801 239.3225,67.4481 240.4305,66.6011 C241.5355,65.7551 242.4885,64.8271 243.2855,63.8181 C244.0835,62.8091 244.7095,61.7181 245.1665,60.5471 C245.6215,59.3751 245.8505,58.1221 245.8505,56.7871 C245.8505,55.7451 245.6705,54.8181 245.3125,54.0041 C244.9535,53.1901 244.4825,52.4981 243.8965,51.9281 C243.3115,51.3591 242.6505,50.9201 241.9185,50.6101 C241.1865,50.3011 240.4455,50.1461 239.6975,50.1461 C238.4285,50.1461 237.2645,50.4391 236.2055,51.0251 C235.1475,51.6111 234.2365,52.4251 233.4715,53.4671 C232.7065,54.5091 232.1205,55.7291 231.7135,57.1291 C231.5825,57.5781 231.4805,58.0461 231.3935,58.5211 C231.2435,58.6761 231.1085,58.8551 231.0065,59.0821 C228.6295,64.3551 224.3815,70.9801 218.2615,78.9551 C218.2935,76.6111 218.3345,74.3891 218.3835,72.2901 C218.4325,70.1901 218.4735,68.3431 218.5055,66.7481 C218.5385,65.1531 218.5705,63.8751 218.6035,62.9151 C218.6355,61.9551 218.6525,61.4581 218.6525,61.4261 C218.6525,60.9371 218.4975,60.4981 218.1885,60.1071 C217.8785,59.7171 217.4475,59.5211 216.8945,59.5211 C216.4065,59.5211 215.9825,59.6761 215.6255,59.9851 C215.2665,60.2951 215.0555,60.6771 214.9905,61.1331 C214.7625,62.8251 214.3795,64.2901 213.8425,65.5271 C213.3055,66.7641 212.6785,67.7901 211.9625,68.6031 C211.2465,69.4171 210.5055,70.0191 209.7415,70.4101 C208.9765,70.8001 208.2515,70.9961 207.5685,70.9961 C206.1355,70.9961 205.0785,70.5161 204.3945,69.5551 C203.7105,68.5951 203.3695,67.3341 203.3695,65.7711 C203.3695,63.6881 203.7105,61.9061 204.3945,60.4251 C205.0785,58.9441 205.9245,57.7311 206.9335,56.7871 C207.9425,55.8431 209.0335,55.1511 210.2055,54.7121 C211.3765,54.2721 212.4515,54.0521 213.4275,54.0521 C214.0785,54.0521 214.6405,54.1181 215.1125,54.2481 C215.5835,54.3781 215.9915,54.5411 216.3335,54.7361 C216.6745,54.9311 216.9515,55.1191 217.1635,55.2981 C217.3745,55.4771 217.5455,55.6151 217.6755,55.7131 C218.0985,56.0711 218.5385,56.2501 218.9945,56.2501 C219.4825,56.2501 219.9055,56.0631 220.2635,55.6881 C220.6215,55.3141 220.8005,54.8831 220.8005,54.3941 C220.8005,53.9061 220.6215,53.4671 220.2635,53.0761 C220.2305,53.0441 220.0515,52.8811 219.7265,52.5881 C219.4005,52.2951 218.9375,51.9861 218.3345,51.6601 C217.7325,51.3351 217.0085,51.0421 216.1625,50.7811 C215.3155,50.5211 214.3875,50.3901 213.3785,50.3901 C211.8815,50.3901 210.3275,50.7161 208.7155,51.3671 C207.1045,52.0181 205.6315,52.9951 204.2965,54.2971 C203.1995,55.3671 202.2705,56.6651 201.4925,58.1641 C201.4095,58.2001 201.3215,58.2261 201.2455,58.2761 C200.9685,58.4551 200.7485,58.7241 200.5855,59.0821 C198.2095,64.3551 193.9615,70.9801 187.8415,78.9551 C187.8745,76.6111 187.9155,74.3891 187.9635,72.2901 C188.0125,70.1901 188.0535,68.3431 188.0855,66.7481 C188.1185,65.1531 188.1505,63.8751 188.1835,62.9151 C188.2155,61.9551 188.2325,61.4581 188.2325,61.4261 C188.2325,60.9371 188.0775,60.4981 187.7685,60.1071 C187.4585,59.7171 187.0275,59.5211 186.4745,59.5211 C185.9865,59.5211 185.5625,59.6761 185.2055,59.9851 C184.8465,60.2951 184.6355,60.6771 184.5705,61.1331 C184.3425,62.8251 183.9595,64.2901 183.4225,65.5271 C182.8855,66.7641 182.2585,67.7901 181.5425,68.6031 C180.8265,69.4171 180.0855,70.0191 179.3215,70.4101 C178.5565,70.8001 177.8325,70.9961 177.1485,70.9961 C175.7155,70.9961 174.6585,70.5161 173.9745,69.5551 C173.2915,68.5951 172.9495,67.3341 172.9495,65.7711 C172.9495,63.6881 173.2915,61.9061 173.9745,60.4251 C174.6585,58.9441 175.5045,57.7311 176.5135,56.7871 C177.5225,55.8431 178.6135,55.1511 179.7855,54.7121 C180.9575,54.2721 182.0315,54.0521 183.0075,54.0521 C183.6585,54.0521 184.2205,54.1181 184.6925,54.2481 C185.1645,54.3781 185.5715,54.5411 185.9135,54.7361 C186.2545,54.9311 186.5315,55.1191 186.7435,55.2981 C186.9545,55.4771 187.1255,55.6151 187.2555,55.7131 C187.6785,56.0711 188.1185,56.2501 188.5745,56.2501 C189.0625,56.2501 189.4855,56.0631 189.8435,55.6881 C190.2015,55.3141 190.3805,54.8831 190.3805,54.3941 C190.3805,53.9061 190.2015,53.4671 189.8435,53.0761 C189.8115,53.0441 189.6315,52.8811 189.3065,52.5881 C188.9805,52.2951 188.5175,51.9861 187.9155,51.6601 C187.3125,51.3351 186.5885,51.0421 185.7425,50.7811 C184.8955,50.5211 183.9675,50.3901 182.9585,50.3901 C181.4615,50.3901 179.9075,50.7161 178.2955,51.3671 C176.6845,52.0181 175.2115,52.9951 173.8765,54.2971 C172.7755,55.3711 171.8455,56.6731 171.0655,58.1781 C171.0255,58.1971 170.9865,58.2061 170.9475,58.2271 C170.6215,58.4061 170.4105,58.5931 170.3125,58.7891 C169.7915,59.8631 169.2465,60.8071 168.6765,61.6211 C168.1065,62.4351 167.4635,63.1021 166.7485,63.6231 C166.0315,64.1441 165.2345,64.5341 164.3555,64.7951 C163.4765,65.0551 162.4835,65.1851 161.3765,65.1851 L160.7425,65.1851 C160.5465,65.1851 160.3515,65.1691 160.1565,65.1361 C160.4165,63.9971 160.5465,62.9071 160.5465,61.8651 C160.5465,59.8801 160.3675,58.1711 160.0095,56.7381 C159.6515,55.3061 159.1715,54.1341 158.5695,53.2221 C157.9665,52.3111 157.2755,51.6441 156.4945,51.2201 C155.7125,50.7981 154.8825,50.5861 154.0035,50.5861 C152.5395,50.5861 151.3585,51.1721 150.4635,52.3431 C149.5685,53.5151 149.1215,55.0291 149.1215,56.8841 C149.1215,59.1961 149.7395,61.2791 150.9765,63.1341 C152.2135,64.9901 153.7925,66.4231 155.7125,67.4311 C155.0615,68.7661 154.1255,69.8651 152.9055,70.7271 C151.6845,71.5901 150.1465,72.0211 148.2915,72.0211 C147.2495,72.0211 146.3055,71.8341 145.4585,71.4601 C144.6125,71.0861 143.8795,70.5651 143.2615,69.8971 C142.6435,69.2301 142.1705,68.4321 141.8455,67.5051 C141.5205,66.5771 141.3575,65.5761 141.3575,64.5021 C141.3575,63.2981 141.5205,62.2071 141.8455,61.2301 C142.1705,60.2541 142.5855,59.4071 143.0905,58.6911 C143.5955,57.9751 144.1405,57.3811 144.7265,56.9091 C145.3125,56.4371 145.8655,56.0711 146.3865,55.8101 C146.9075,55.5501 147.3385,55.2811 147.6805,55.0051 C148.0225,54.7281 148.1935,54.3131 148.1935,53.7591 C148.1935,53.2711 148.0545,52.8811 147.7785,52.5881 C147.5015,52.2951 147.0865,52.1481 146.5335,52.1481 C146.0445,52.1481 145.3125,52.4011 144.3355,52.9051 C143.3595,53.4101 142.3825,54.1751 141.4065,55.2001 C140.6105,56.0351 139.8955,57.0521 139.2505,58.2331 C138.9615,58.4121 138.7355,58.6621 138.5745,58.9841 C138.1505,59.8631 137.5565,61.0271 136.7925,62.4751 C136.0265,63.9241 135.1395,65.3481 134.1305,66.7481 C133.1215,68.1481 132.0145,69.3601 130.8105,70.3851 C129.6055,71.4111 128.3525,71.9241 127.0505,71.9241 C125.1295,71.9241 123.4865,70.7441 122.1195,68.3841 C120.7515,66.0241 119.6615,62.7771 118.8475,58.6421 C120.6705,55.3221 122.3795,51.9121 123.9745,48.4131 C125.5695,44.9141 126.9535,41.4061 128.1255,37.8901 C129.2965,34.3751 130.2245,30.8841 130.9085,27.4171 C131.5915,23.9501 131.9335,20.5891 131.9335,17.3341 C131.9335,14.6971 131.7705,12.4671 131.4455,10.6441 C131.1195,8.8211 130.6645,7.3411 130.0785,6.2011 C129.4925,5.0621 128.7675,4.2401 127.9055,3.7351 C127.0425,3.2311 126.0745,2.9781 125.0005,2.9781 C123.6325,2.9781 122.4125,3.5321 121.3375,4.6381 C120.2635,5.7451 119.3115,7.2431 118.4815,9.1311 C117.6515,11.0191 116.9355,13.2161 116.3335,15.7221 C115.7305,18.2291 115.2345,20.8821 114.8435,23.6811 C114.4535,26.4811 114.1675,29.3451 113.9895,32.2751 C113.8105,35.2051 113.7205,38.0371 113.7205,40.7711 C113.7205,42.6591 113.7775,44.8241 113.8915,47.2651 C114.0055,49.7071 114.2255,52.2211 114.5505,54.8091 C114.8755,57.3971 115.3395,59.9361 115.9425,62.4261 C116.5445,64.9171 117.3335,67.1381 118.3105,69.0921 C119.2875,71.0451 120.4755,72.6241 121.8755,73.8281 C123.2745,75.0321 124.9515,75.6341 126.9045,75.6341 C128.1735,75.6341 129.3705,75.3661 130.4935,74.8291 C131.6165,74.2921 132.6735,73.5921 133.6675,72.7291 C134.6595,71.8671 135.5795,70.8901 136.4255,69.8001 C137.0095,69.0481 137.5395,68.2911 138.0455,67.5321 C138.1625,68.0251 138.2985,68.5091 138.4765,68.9691 C138.9975,70.3211 139.7295,71.4761 140.6735,72.4361 C141.6175,73.3971 142.7245,74.1451 143.9945,74.6821 C145.2635,75.2191 146.6635,75.4881 148.1935,75.4881 C149.4955,75.4881 150.6995,75.3091 151.8065,74.9511 C152.9135,74.5921 153.9145,74.1051 154.8095,73.4861 C155.7045,72.8681 156.4945,72.1431 157.1775,71.3131 C157.8615,70.4831 158.4475,69.5801 158.9355,68.6031 C159.5535,68.7341 160.2705,68.7991 161.0835,68.7991 C162.6135,68.8311 163.9975,68.6521 165.2345,68.2611 C166.4715,67.8711 167.5855,67.3421 168.5795,66.6751 C168.8345,66.5031 169.0575,66.3021 169.2955,66.1151 C169.3175,67.2891 169.4895,68.3811 169.8245,69.3841 C170.1825,70.4591 170.6865,71.3951 171.3375,72.1921 C171.9885,72.9901 172.7785,73.6081 173.7065,74.0481 C174.6335,74.4871 175.6675,74.7071 176.8065,74.7071 C178.1415,74.7071 179.4835,74.3481 180.8345,73.6331 C182.1855,72.9171 183.3495,71.9401 184.3265,70.7031 C184.2605,72.5911 184.2205,74.6581 184.2045,76.9041 C184.1875,79.1501 184.1635,81.4121 184.1305,83.6911 C182.7955,85.1561 181.5345,86.7831 180.3465,88.5741 C179.1585,90.3641 178.0595,92.2361 177.0505,94.1891 C176.0415,96.1421 175.1225,98.1521 174.2925,100.2191 C173.4615,102.2861 172.7535,104.3291 172.1675,106.3471 C171.5825,108.3651 171.1345,110.3271 170.8255,112.2311 C170.5155,114.1351 170.3615,115.9011 170.3615,117.5291 C170.3615,120.5891 170.9475,122.9491 172.1195,124.6091 C173.2915,126.2691 174.9675,127.0991 177.1485,127.0991 C178.6785,127.0991 180.0045,126.7171 181.1275,125.9521 C182.2505,125.1871 183.2105,124.1291 184.0085,122.7781 C184.8065,121.4271 185.4575,119.8321 185.9615,117.9931 C186.4665,116.1541 186.8655,114.1521 187.1585,111.9871 C187.4515,109.8221 187.6545,107.5441 187.7685,105.1511 C187.8825,102.7591 187.9395,100.3421 187.9395,97.9001 C187.9395,95.4591 187.9225,93.2131 187.8905,91.1621 C187.8575,89.1111 187.8415,87.0601 187.8415,85.0091 C191.8775,79.9641 195.2145,75.4391 197.8515,71.4351 C198.5955,70.3051 199.2795,69.2131 199.9275,68.1421 C200.0115,68.5681 200.1105,68.9861 200.2445,69.3841 C200.6025,70.4591 201.1065,71.3951 201.7575,72.1921 C202.4085,72.9901 203.1985,73.6081 204.1255,74.0481 C205.0535,74.4871 206.0865,74.7071 207.2265,74.7071 C208.5615,74.7071 209.9035,74.3481 211.2545,73.6331 C212.6055,72.9171 213.7695,71.9401 214.7465,70.7031 C214.6805,72.5911 214.6405,74.6581 214.6245,76.9041 C214.6075,79.1501 214.5835,81.4121 214.5505,83.6911 C213.2155,85.1561 211.9545,86.7831 210.7665,88.5741 C209.5785,90.3641 208.4795,92.2361 207.4705,94.1891 C206.4615,96.1421 205.5425,98.1521 204.7115,100.2191 C203.8815,102.2861 203.1735,104.3291 202.5875,106.3471 C202.0015,108.3651 201.5545,110.3271 201.2455,112.2311 C200.9355,114.1351 200.7815,115.9011 200.7815,117.5291 C200.7815,120.5891 201.3675,122.9491 202.5395,124.6091 C203.7105,126.2691 205.3875,127.0991 207.5685,127.0991 C209.0985,127.0991 210.4245,126.7171 211.5475,125.9521 C212.6705,125.1871 213.6305,124.1291 214.4285,122.7781 C215.2265,121.4271 215.8765,119.8321 216.3815,117.9931 C216.8865,116.1541 217.2855,114.1521 217.5785,111.9871 C217.8715,109.8221 218.0745,107.5441 218.1885,105.1511 C218.3025,102.7591 218.3595,100.3421 218.3595,97.9001 C218.3595,95.4591 218.3425,93.2131 218.3105,91.1621 C218.2775,89.1111 218.2615,87.0601 218.2615,85.0091 C222.2975,79.9641 225.6355,75.4391 228.2715,71.4351 C229.5365,69.5151 230.6535,67.6871 231.6415,65.9391 C231.7035,66.1921 231.7625,66.4461 231.8365,66.6991 C232.3245,68.3591 233.0725,69.8481 234.0825,71.1671 C235.0905,72.4851 236.3775,73.5591 237.9395,74.3891 C239.5025,75.2191 241.3575,75.6341 243.5065,75.6341 C246.8575,75.5691 249.8615,74.2831 252.5145,71.7771 C255.1365,69.3001 257.5595,65.6271 259.7825,60.7661 C259.8255,60.6921 259.8765,60.6301 259.9125,60.5471 C259.9435,60.5141 260.0255,60.3191 260.1565,59.9611 C260.2855,59.6031 260.4405,59.1391 260.6195,58.5691 C260.7995,58.0001 260.9865,57.3321 261.1825,56.5671 C261.3775,55.8021 261.5395,54.9801 261.6705,54.1011 C262.2875,54.0691 262.8655,54.0521 263.4025,54.0521 L264.8935,54.0521 C265.8365,54.0521 266.4465,54.2071 266.7235,54.5161 C267.0005,54.8261 267.1395,55.2901 267.1395,55.9081 C267.1395,57.3731 266.9755,58.9111 266.6505,60.5221 C266.3245,62.1341 266.1625,63.7531 266.1625,65.3811 C266.1625,66.9111 266.3895,68.2861 266.8465,69.5071 C267.3015,70.7271 267.9115,71.7531 268.6765,72.5831 C269.4415,73.4131 270.3445,74.0481 271.3875,74.4871 C272.4285,74.9261 273.5355,75.1461 274.7075,75.1461 C276.5945,75.1461 278.3285,74.6411 279.9065,73.6331 C281.4855,72.6241 282.9105,71.3861 284.1805,69.9221 C285.4495,68.4571 286.5805,66.8861 287.5725,65.2101 C288.5655,63.5331 289.4365,62.0281 290.1865,60.6931 C290.3145,60.4331 290.3815,60.1401 290.3815,59.8141 C290.3815,59.3591 290.2175,58.9441 289.8935,58.5691 Z" id="Fill-4"></path>
            <path d="M111.4063,141.2894 C111.0903,141.2894 110.7903,141.3604 110.5063,141.5024 C110.2223,141.6444 110.0013,141.8574 109.8433,142.1424 C108.4853,144.3204 106.6543,146.4834 104.3493,148.6304 C102.0443,150.7784 99.3993,152.7124 96.4163,154.4334 C93.4313,156.1544 90.1873,157.5434 86.6823,158.6014 C83.1773,159.6594 79.5313,160.1874 75.7413,160.1874 C72.9003,160.1874 70.0423,159.9434 67.1693,159.4534 C64.2953,158.9644 61.5403,158.2064 58.9043,157.1804 C56.2673,156.1544 53.8043,154.8514 51.5153,153.2724 C49.2253,151.6934 47.2293,149.8234 45.5243,147.6594 C43.8193,145.4974 42.4843,143.0264 41.5213,140.2474 C40.5583,137.4694 40.0773,134.3584 40.0773,130.9164 C40.0773,127.1274 40.6693,123.6394 41.8533,120.4494 C43.0373,117.2604 44.6243,114.3794 46.6133,111.8064 C48.6023,109.2324 50.9153,106.9824 53.5523,105.0564 C56.1883,103.1304 58.9593,101.5204 61.8643,100.2254 C64.7693,98.9314 67.7143,97.9604 70.6973,97.3124 C73.6813,96.6654 76.5313,96.3414 79.2463,96.3414 C82.8463,96.3414 86.2323,96.7364 89.4063,97.5254 C92.5793,98.3154 95.3503,99.4284 97.7183,100.8644 C100.0863,102.3024 101.9653,104.0384 103.3543,106.0744 C104.7433,108.1114 105.4383,110.3614 105.4383,112.8244 C105.4383,115.0664 104.8853,117.2134 103.7813,119.2654 C102.6753,121.3184 101.1593,123.1334 99.2343,124.7124 C97.3073,126.2914 95.0573,127.5544 92.4843,128.5014 C89.9103,129.4484 87.1563,129.9224 84.2193,129.9224 C82.6403,129.9224 81.0623,129.7564 79.4833,129.4254 C77.9043,129.0934 76.4683,128.5414 75.1733,127.7674 C73.8783,126.9944 72.8293,125.9914 72.0233,124.7594 C71.2183,123.5284 70.8163,122.0124 70.8163,120.2124 C70.8163,119.0764 70.9973,118.0344 71.3603,117.0864 C71.7233,116.1394 72.1263,115.3274 72.5683,114.6474 C73.0103,113.9694 73.4213,113.4324 73.8003,113.0374 C74.1783,112.6434 74.3993,112.4294 74.4633,112.3974 C74.8733,112.0184 75.0783,111.5454 75.0783,110.9774 C75.0783,110.4724 74.9053,110.0614 74.5573,109.7454 C74.2103,109.4304 73.7833,109.2714 73.2793,109.2714 C73.0893,109.2714 72.8913,109.2954 72.6863,109.3434 C72.4813,109.3904 72.3003,109.4934 72.1423,109.6504 C72.0783,109.7144 71.7873,110.0064 71.2653,110.5264 C70.7453,111.0484 70.1923,111.7664 69.6083,112.6824 C69.0233,113.5984 68.4873,114.6944 67.9983,115.9744 C67.5083,117.2524 67.2633,118.6654 67.2633,120.2124 C67.2633,122.0764 67.6263,123.8124 68.3533,125.4224 C69.0793,127.0334 70.1533,128.4384 71.5733,129.6384 C72.9943,130.8384 74.7623,131.7774 76.8783,132.4564 C78.9933,133.1354 81.4253,133.4744 84.1723,133.4744 C87.5823,133.4744 90.7953,132.9224 93.8103,131.8164 C96.8253,130.7114 99.4623,129.2114 101.7203,127.3174 C103.9773,125.4224 105.7543,123.2204 107.0493,120.7104 C108.3433,118.1994 108.9903,115.5554 108.9903,112.7764 C108.9903,109.7774 108.2093,107.0544 106.6463,104.6064 C105.0833,102.1604 102.9593,100.0604 100.2763,98.3074 C97.5923,96.5554 94.4573,95.1974 90.8743,94.2334 C87.2903,93.2714 83.4623,92.7894 79.3883,92.7894 C75.6943,92.7894 72.0783,93.2154 68.5423,94.0684 C65.0063,94.9204 61.6433,96.1444 58.4543,97.7384 C55.2643,99.3334 52.3283,101.2674 49.6443,103.5404 C46.9603,105.8144 44.6393,108.3644 42.6823,111.1894 C40.7243,114.0164 39.2013,117.0864 38.1113,120.4024 C37.0223,123.7174 36.4773,127.2224 36.4773,130.9164 C36.4773,134.7064 37.0063,138.1474 38.0643,141.2424 C39.1213,144.3364 40.5823,147.0994 42.4453,149.5304 C44.3083,151.9624 46.4953,154.0704 49.0053,155.8534 C51.5153,157.6384 54.2303,159.1144 57.1513,160.2824 C60.0723,161.4504 63.1193,162.3184 66.2933,162.8874 C69.4663,163.4554 72.6473,163.7394 75.8363,163.7394 C79.9093,163.7394 83.8563,163.1634 87.6773,162.0114 C91.4973,160.8584 95.0263,159.3434 98.2623,157.4644 C101.4993,155.5854 104.3803,153.4704 106.9063,151.1174 C109.4323,148.7654 111.4373,146.3894 112.9223,143.9894 C113.0163,143.8314 113.0793,143.6734 113.1113,143.5154 C113.1423,143.3574 113.1583,143.2004 113.1583,143.0414 C113.1583,142.6004 113.0003,142.1974 112.6853,141.8344 C112.3693,141.4714 111.9433,141.2894 111.4063,141.2894" id="Fill-7"></path>
            <path d="M156.4961,123.22 C156.8111,122.889 157.1901,122.723 157.6331,122.723 C158.0751,122.723 158.4621,122.889 158.7931,123.22 C159.1251,123.552 159.2901,123.939 159.2901,124.381 C159.2901,124.823 159.1251,125.202 158.7931,125.517 C158.4621,125.833 158.0751,125.991 157.6331,125.991 C157.1901,125.991 156.8111,125.833 156.4961,125.517 C156.1801,125.202 156.0221,124.823 156.0221,124.381 C156.0221,123.939 156.1801,123.552 156.4961,123.22 M157.6331,128.691 C158.8321,128.691 159.8501,128.273 160.6871,127.436 C161.5241,126.599 161.9431,125.581 161.9431,124.381 C161.9431,123.781 161.8321,123.22 161.6111,122.699 C161.3901,122.178 161.0821,121.721 160.6871,121.325 C160.2921,120.931 159.8351,120.623 159.3141,120.402 C158.7931,120.181 158.2321,120.071 157.6331,120.071 C157.0331,120.071 156.4731,120.181 155.9511,120.402 C155.4311,120.623 154.9721,120.931 154.5781,121.325 C154.1831,121.721 153.8751,122.178 153.6541,122.699 C153.4331,123.22 153.3231,123.781 153.3231,124.381 C153.3231,125.581 153.7411,126.599 154.5781,127.436 C155.4141,128.273 156.4331,128.691 157.6331,128.691" id="Fill-9"></path>
            <path d="M121.542,134.7059 C121.542,132.6539 121.558,130.4519 121.589,128.0989 C121.621,125.7469 121.676,123.3229 121.755,120.8289 C121.834,118.3339 121.952,115.9029 122.11,113.5349 C122.268,111.1659 122.473,108.9249 122.726,106.8089 C122.979,104.6939 123.294,102.8389 123.673,101.2439 C124.052,99.6499 124.494,98.3869 125,97.4549 C125.504,96.5239 126.104,96.0579 126.799,96.0579 C127.683,96.0579 128.37,96.4839 128.86,97.3359 C129.349,98.1889 129.712,99.1839 129.949,100.3199 C130.186,101.4569 130.328,102.5779 130.375,103.6829 C130.422,104.7889 130.446,105.5939 130.446,106.0989 C130.446,109.1619 130.225,112.1059 129.783,114.9319 C129.341,117.7579 128.733,120.5439 127.959,123.2909 C127.186,126.0389 126.254,128.7939 125.166,131.5559 C124.076,134.3199 122.868,137.1529 121.542,140.0579 L121.542,134.7059 Z M205.257,146.4049 C204.925,146.0259 204.491,145.8359 203.954,145.8359 C203.606,145.8359 203.283,145.9239 202.983,146.0969 C202.683,146.2709 202.47,146.5159 202.344,146.8309 C202.28,147.0199 202.067,147.4869 201.704,148.2279 C201.341,148.9709 200.835,149.8379 200.188,150.8329 C199.541,151.8279 198.76,152.8859 197.844,154.0059 C196.928,155.1279 195.871,156.1619 194.671,157.1089 C193.471,158.0559 192.145,158.8369 190.692,159.4539 C189.24,160.0689 187.661,160.3769 185.956,160.3769 C184.63,160.3769 183.485,160.1089 182.522,159.5719 C181.559,159.0349 180.762,158.3169 180.13,157.4159 C179.499,156.5169 179.025,155.4829 178.709,154.3139 C178.394,153.1459 178.236,151.9149 178.236,150.6199 C178.236,149.2629 178.417,147.9759 178.78,146.7599 C179.143,145.5449 179.625,144.4869 180.225,143.5859 C180.825,142.6869 181.527,141.9689 182.333,141.4319 C183.138,140.8949 183.982,140.6259 184.867,140.6259 C185.814,140.6259 186.596,140.8949 187.211,141.4319 C187.827,141.9689 188.135,142.5679 188.135,143.2309 C188.135,143.7049 188.079,144.0919 187.969,144.3919 C187.858,144.6919 187.732,144.9449 187.59,145.1499 C187.448,145.3549 187.321,145.5519 187.211,145.7419 C187.1,145.9309 187.045,146.1519 187.045,146.4049 C187.045,146.9099 187.211,147.3359 187.543,147.6839 C187.874,148.0309 188.308,148.2049 188.845,148.2049 C189.192,148.2049 189.54,148.0709 189.887,147.8019 C190.234,147.5339 190.542,147.1709 190.811,146.7119 C191.079,146.2549 191.3,145.7259 191.474,145.1259 C191.647,144.5259 191.734,143.8789 191.734,143.1839 C191.734,142.4579 191.568,141.7319 191.237,141.0049 C190.905,140.2789 190.447,139.6159 189.863,139.0159 C189.279,138.4159 188.561,137.9349 187.709,137.5719 C186.856,137.2089 185.909,137.0269 184.867,137.0269 C183.477,137.0269 182.167,137.3819 180.936,138.0919 C179.704,138.8029 178.622,139.7739 177.691,141.0049 C176.759,142.2369 176.025,143.6809 175.489,145.3389 C175.406,145.5949 175.341,145.8589 175.271,146.1209 C175.002,146.2929 174.788,146.5269 174.636,146.8309 C173.657,148.7889 172.663,150.5649 171.652,152.1599 C170.642,153.7539 169.64,155.1199 168.645,156.2559 C167.65,157.3929 166.679,158.2769 165.732,158.9089 C164.785,159.5399 163.869,159.8559 162.985,159.8559 C162.448,159.8559 161.887,159.7609 161.304,159.5719 C160.719,159.3819 160.167,159.0029 159.646,158.4349 C159.125,157.8669 158.698,157.0699 158.367,156.0429 C158.035,155.0179 157.87,153.6669 157.87,151.9939 C157.87,150.7619 157.909,149.4129 157.988,147.9439 C158.066,146.4759 158.161,145.0869 158.272,143.7759 C158.382,142.4659 158.477,141.3369 158.557,140.3899 C158.635,139.4419 158.675,138.8739 158.675,138.6849 C158.675,138.2109 158.517,137.7929 158.201,137.4289 C157.885,137.0669 157.491,136.8849 157.017,136.8849 C156.48,136.8849 156.046,137.0499 155.715,137.3819 C155.383,137.7129 155.186,138.1009 155.123,138.5419 C154.786,141.2169 154.561,143.8979 154.424,146.5839 C154.353,146.6909 154.279,146.7959 154.223,146.9259 C153.97,147.4629 153.638,148.1329 153.228,148.9389 C152.817,149.7439 152.344,150.5809 151.807,151.4489 C151.27,152.3179 150.67,153.1859 150.007,154.0539 C149.344,154.9229 148.649,155.7109 147.923,156.4219 C147.197,157.1319 146.455,157.7009 145.697,158.1269 C144.939,158.5529 144.182,158.7669 143.424,158.7669 C142.761,158.7669 142.224,158.5849 141.813,158.2219 C141.403,157.8589 141.095,157.3859 140.89,156.8009 C140.684,156.2169 140.542,155.5539 140.463,154.8119 C140.384,154.0699 140.345,153.3199 140.345,152.5619 C140.345,151.2359 140.417,149.9649 140.558,148.7489 C140.701,147.5339 140.771,146.5629 140.771,145.8359 C140.771,144.9529 140.668,144.1309 140.463,143.3729 C140.258,142.6159 139.958,141.9529 139.564,141.3839 C139.168,140.8159 138.664,140.3659 138.048,140.0349 C137.432,139.7029 136.714,139.5369 135.893,139.5369 C135.072,139.5369 134.195,139.7819 133.264,140.2709 C132.333,140.7609 131.409,141.5579 130.494,142.6629 C129.578,143.7999 128.694,145.0159 127.841,146.3099 C126.989,147.6049 126.184,148.9079 125.426,150.2169 C124.668,151.5279 123.958,152.8069 123.294,154.0539 C122.631,155.3019 122.047,156.4619 121.542,157.5349 L121.495,155.3089 L121.495,153.6509 L121.495,151.4249 L121.495,149.0569 L121.495,147.0199 C123.168,143.9579 124.763,140.8089 126.278,137.5719 C127.794,134.3349 129.12,131.0119 130.257,127.6019 C131.394,124.1909 132.301,120.6949 132.98,117.1109 C133.659,113.5269 133.999,109.8719 133.999,106.1459 C133.999,104.3149 133.872,102.5699 133.62,100.9129 C133.367,99.2539 132.957,97.8029 132.388,96.5549 C131.82,95.3079 131.078,94.3209 130.162,93.5949 C129.246,92.8689 128.125,92.5049 126.799,92.5049 C125.252,92.5049 123.965,93.2319 122.939,94.6839 C121.913,96.1369 121.068,98.1969 120.405,100.8649 C119.742,103.5339 119.245,106.7539 118.914,110.5269 C118.582,114.3009 118.345,118.5159 118.203,123.1729 C118.061,127.8309 117.981,132.8669 117.966,138.2819 C117.95,143.6979 117.942,149.3889 117.942,155.3559 L117.942,158.3399 C117.942,159.4459 118.203,160.3849 118.724,161.1589 C119.245,161.9319 119.995,162.3189 120.974,162.3189 C121.51,162.3189 122.118,162.0889 122.797,161.6319 C123.476,161.1749 124.147,160.2819 124.81,158.9559 C125.157,158.2619 125.599,157.3859 126.136,156.3279 C126.673,155.2699 127.273,154.1569 127.936,152.9879 C128.599,151.8199 129.286,150.6439 129.997,149.4589 C130.707,148.2759 131.417,147.2099 132.127,146.2629 C132.838,145.3149 133.517,144.5499 134.165,143.9649 C134.811,143.3819 135.388,143.0889 135.893,143.0889 C136.24,143.0889 136.548,143.2629 136.817,143.6099 C137.084,143.9579 137.219,144.6209 137.219,145.5999 C137.219,145.9779 137.196,146.4449 137.148,146.9969 C137.101,147.5499 137.045,148.1419 136.982,148.7729 C136.919,149.4049 136.864,150.0439 136.817,150.6909 C136.769,151.3389 136.746,151.9459 136.746,152.5149 C136.746,153.6199 136.832,154.7569 137.006,155.9249 C137.179,157.0929 137.511,158.1509 138,159.0979 C138.49,160.0449 139.177,160.8269 140.061,161.4429 C140.945,162.0579 142.113,162.3659 143.566,162.3659 C144.829,162.3659 146.036,162.0579 147.189,161.4429 C148.341,160.8269 149.416,160.0379 150.41,159.0749 C151.405,158.1119 152.312,157.0609 153.133,155.9249 C153.581,155.3059 153.991,154.7029 154.377,154.1119 C154.466,154.9609 154.607,155.7809 154.814,156.5639 C155.177,157.9379 155.73,159.1299 156.473,160.1399 C157.214,161.1509 158.122,161.9559 159.196,162.5559 C160.269,163.1549 161.517,163.4559 162.938,163.4559 C164.042,163.4559 165.132,163.1869 166.206,162.6499 C167.279,162.1129 168.305,161.4119 169.284,160.5419 C170.263,159.6749 171.186,158.6959 172.055,157.6059 C172.923,156.5169 173.72,155.4199 174.447,154.3139 C174.605,154.0729 174.745,153.8399 174.896,153.6019 C175.022,154.4459 175.201,155.2539 175.441,156.0189 C175.946,157.6299 176.688,159.0269 177.667,160.2109 C178.646,161.3949 179.83,162.3099 181.22,162.9579 C182.609,163.6049 184.204,163.9289 186.003,163.9289 C188.024,163.9289 189.895,163.5979 191.616,162.9349 C193.336,162.2709 194.892,161.4269 196.281,160.4009 C197.67,159.3749 198.902,158.2459 199.976,157.0139 C201.049,155.7829 201.972,154.5909 202.746,153.4379 C203.52,152.2859 204.135,151.2519 204.594,150.3359 C205.051,149.4199 205.375,148.7889 205.564,148.4409 C205.69,148.1259 205.754,147.8729 205.754,147.6839 C205.754,147.2099 205.588,146.7839 205.257,146.4049 Z" id="Fill-11"></path>
        </g>
    </g>
</svg>